# xmcd
#
# Track frame offsets: 
#        150
#        22642
#        41163
#        61381
#
# Disc length: 1047 seconds
#
# Revision: 0
# Processed by: cddbd v1.5.1PL0 Copyright (c) Steve Scherf et al.
# Submitted via: ExactAudioCopy v0.95a5
#
DISCID=28041504
DTITLE=Lina - The Inner Beauty Movement Sampler
DYEAR=2005
DGENRE=R&B/Soul
TTITLE0=Leaving You
TTITLE1=Come To Mama
TTITLE2=Hope, Wish and Pray
TTITLE3=Around The World (Featuring Anthony Hamilton)
EXTD=
EXTT0=
EXTT1=
EXTT2=
EXTT3=
PLAYORDER=
